<?xml version="1.0" standalone="no"?>
<!DOCTYPE svg PUBLIC "-//W3C//DTD SVG 20010904//EN"
 "http://www.w3.org/TR/2001/REC-SVG-20010904/DTD/svg10.dtd">
<svg version="1.0" xmlns="http://www.w3.org/2000/svg"
 width="554.000000pt" height="554.000000pt" viewBox="0 0 554.000000 554.000000"
 preserveAspectRatio="xMidYMid meet">

<g transform="translate(0.000000,554.000000) scale(0.100000,-0.100000)"
fill="#000000" stroke="none">
<path d="M2690 4599 c-357 -45 -746 -243 -1010 -514 l-75 -77 74 47 c251 159
541 265 826 300 214 27 417 12 634 -45 222 -59 601 -231 601 -273 0 -6 -29
-44 -65 -83 -35 -39 -61 -74 -58 -78 8 -8 598 -8 606 0 6 6 -19 67 -173 427
-51 119 -95 216 -97 214 -2 -2 -15 -48 -29 -103 -14 -54 -28 -102 -30 -106 -3
-4 -42 17 -87 46 -148 96 -313 169 -482 213 -139 36 -474 53 -635 32z"/>
<path d="M2368 3951 c-42 -15 -84 -33 -92 -40 -17 -14 -15 -47 11 -211 l14
-95 -38 -30 c-20 -16 -63 -54 -94 -83 l-57 -53 -106 36 c-59 19 -128 36 -154
38 l-47 2 -47 -79 c-27 -44 -48 -90 -48 -102 0 -21 76 -101 179 -191 l33 -29
-16 -78 c-9 -43 -16 -95 -16 -115 0 -20 -4 -41 -8 -47 -4 -5 -36 -21 -72 -33
-110 -40 -210 -92 -210 -110 0 -27 31 -186 39 -199 9 -15 125 -32 227 -32 l82
0 27 -52 c15 -29 43 -78 63 -108 l34 -54 -67 -137 c-38 -75 -65 -141 -61 -147
13 -22 158 -132 173 -132 17 0 87 48 177 123 68 55 56 55 203 2 l101 -37 11
-62 c6 -33 21 -99 34 -146 l23 -85 92 -3 c138 -4 149 6 186 177 13 62 28 117
33 122 4 4 58 25 120 47 l112 38 78 -63 c43 -34 97 -73 120 -85 42 -22 43 -22
75 -5 18 10 59 42 92 72 l59 53 -71 137 -71 136 54 91 c30 49 57 98 60 107 5
16 22 19 133 24 165 7 177 12 196 79 21 78 28 126 21 150 -7 21 -94 66 -213
108 -46 17 -63 28 -66 44 -2 12 -12 67 -23 123 l-19 101 108 102 c60 56 108
109 108 118 0 24 -76 148 -105 171 l-26 19 -91 -25 c-50 -13 -113 -33 -138
-43 l-47 -19 -39 40 c-21 22 -65 58 -97 82 -44 32 -57 47 -53 62 15 62 38 277
30 284 -19 18 -178 72 -202 69 -19 -2 -39 -22 -80 -83 -30 -44 -63 -98 -74
-120 l-20 -40 -129 0 -130 1 -65 104 c-100 161 -91 156 -216 111z m557 -566
c184 -48 343 -205 399 -394 20 -70 21 -218 1 -296 -49 -188 -212 -349 -405
-400 -71 -19 -210 -19 -283 0 -243 63 -420 291 -420 540 0 158 54 286 168 401
72 73 138 114 235 145 70 23 224 25 305 4z"/>
<path d="M2650 3291 c-23 -6 -25 -12 -28 -69 -3 -60 -4 -63 -43 -89 l-40 -26
-55 19 c-62 21 -83 15 -98 -29 -8 -22 -4 -32 27 -70 34 -41 35 -47 25 -78 -18
-57 -22 -61 -78 -78 -44 -13 -56 -21 -58 -40 -7 -48 6 -70 46 -76 20 -3 46 -8
57 -10 13 -3 29 -22 42 -51 l22 -47 -30 -43 c-35 -51 -36 -64 -6 -92 30 -28
39 -28 92 3 l43 26 46 -22 c42 -21 46 -26 52 -68 10 -75 12 -79 52 -84 43 -5
57 7 73 66 10 39 28 51 91 64 23 5 35 -2 69 -36 l40 -42 32 18 c38 23 44 50
22 105 -14 36 -14 43 -1 62 39 55 41 56 105 56 58 0 62 2 72 27 17 45 7 66
-43 93 l-48 25 0 55 c0 50 3 57 28 72 15 9 36 26 47 37 18 20 18 23 2 56 -18
38 -41 44 -104 26 -28 -8 -34 -5 -68 29 l-37 38 13 57 c12 54 11 59 -7 72 -41
30 -65 28 -93 -8 -14 -18 -30 -38 -36 -45 -7 -8 -27 -9 -60 -5 -48 6 -51 8
-78 59 -29 53 -37 57 -87 43z m226 -252 c104 -49 154 -189 105 -294 -57 -124
-202 -171 -318 -105 -156 90 -151 320 10 399 57 28 142 28 203 0z"/>
<path d="M1455 3401 c-24 -5 -32 -14 -41 -46 -7 -22 -13 -56 -13 -75 -2 -49
-9 -57 -82 -91 -35 -17 -72 -38 -82 -46 -16 -15 -23 -13 -98 22 l-80 37 -26
-23 c-35 -32 -103 -138 -103 -160 0 -10 24 -44 53 -76 l53 -58 -12 -43 c-7
-24 -16 -69 -20 -101 -6 -55 -7 -57 -48 -74 -23 -10 -58 -30 -76 -46 l-35 -28
13 -63 c7 -34 19 -79 25 -99 l12 -36 92 0 c90 0 92 0 114 -30 12 -16 42 -50
66 -75 l43 -46 -17 -77 c-20 -92 -15 -100 75 -140 108 -49 117 -46 181 46 l30
44 102 6 102 6 63 -66 c57 -60 64 -65 80 -52 26 21 124 233 124 269 0 33 -29
97 -55 124 -22 22 -92 11 -180 -27 -136 -60 -277 -38 -384 58 -22 20 -55 67
-73 103 -29 58 -33 76 -33 147 0 71 4 88 33 147 38 77 92 130 171 166 46 21
70 26 136 25 84 0 128 -14 194 -59 42 -28 46 -24 56 59 l7 58 -111 113 -111
113 15 36 c27 64 24 67 -57 66 -40 -1 -86 -4 -103 -8z"/>
<path d="M3930 3398 c0 -9 6 -31 14 -49 l15 -34 -114 -115 -113 -115 10 -57
c5 -32 15 -58 21 -58 6 0 40 12 76 27 176 72 361 3 443 -165 29 -58 33 -76 33
-147 0 -71 -4 -88 -33 -147 -38 -77 -92 -130 -171 -167 -46 -21 -70 -26 -136
-26 -69 0 -90 5 -153 33 -41 19 -89 36 -107 39 -28 4 -36 1 -57 -28 -14 -19
-34 -49 -44 -67 l-18 -32 58 -118 c32 -64 65 -128 73 -142 l16 -24 56 61 56
62 102 -6 103 -6 47 -64 c44 -60 49 -63 77 -57 17 3 60 20 96 38 64 31 65 31
68 76 2 24 -2 64 -8 88 -11 43 -10 45 27 85 21 23 51 58 66 78 l27 36 90 -5
89 -5 11 29 c21 55 41 158 36 180 -4 16 -27 33 -74 56 l-68 33 -18 104 -18
104 40 41 c74 77 75 81 40 138 -17 28 -48 68 -69 90 l-37 39 -53 -24 c-30 -14
-66 -30 -81 -37 -23 -11 -30 -10 -55 7 -15 11 -53 33 -83 48 -30 15 -57 29
-59 31 -1 1 -9 37 -16 80 -8 42 -18 81 -23 86 -5 5 -48 11 -95 15 -74 5 -87 4
-87 -9z"/>
<path d="M1638 1663 c-16 -2 -28 -6 -28 -8 0 -24 176 -448 232 -559 22 -44 32
-56 39 -45 5 8 9 20 9 28 0 31 42 151 52 151 6 0 34 -15 62 -34 126 -83 355
-182 531 -227 84 -22 109 -24 360 -24 223 0 285 3 355 18 290 62 612 230 835
437 55 51 102 97 103 101 2 5 -31 -11 -73 -36 -384 -227 -788 -326 -1160 -285
-189 21 -375 72 -574 157 -117 50 -301 149 -301 163 0 4 34 45 76 89 l76 81
-283 -1 c-156 -1 -296 -4 -311 -6z"/>
</g>
</svg>
